# xmcd
#
# Track frame offsets:
#	150
#	15028
#	28547
#	47742
#	64772
#	82737
#	100087
#	115053
#	136202
#	158074
#
# Disc length: 2354 seconds
#
# Revision: 0
# Processed by: cddbd v1.4PL0 Copyright (c) Steve Scherf et al.
# Submitted via: dBpowerAMP V4.0
#
DISCID=6609300a
DTITLE=Pimpinela - Pasiones
DYEAR=1900
DGENRE=
TTITLE0=Amores del Alma
TTITLE1=Cuidala
TTITLE2=Damelo Todo
TTITLE3=Bronca
TTITLE4=Eo-Eo
TTITLE5=Ojala Que No Pase Nada
TTITLE6=Castigo del Cielo
TTITLE7=Amores Pasiones
TTITLE8=Aqui Estoy Yo
TTITLE9=El Canto de Mi Lamento
EXTD=
EXTT0=
EXTT1=
EXTT2=
EXTT3=
EXTT4=
EXTT5=
EXTT6=
EXTT7=
EXTT8=
EXTT9=
PLAYORDER=
